%TF.GenerationSoftware,KiCad,Pcbnew,9.0.4*%
%TF.CreationDate,2026-01-28T21:56:10-05:00*%
%TF.ProjectId,learn_to_solder,6c656172-6e5f-4746-9f5f-736f6c646572,rev?*%
%TF.SameCoordinates,Original*%
%TF.FileFunction,Legend,Bot*%
%TF.FilePolarity,Positive*%
%FSLAX46Y46*%
G04 Gerber Fmt 4.6, Leading zero omitted, Abs format (unit mm)*
G04 Created by KiCad (PCBNEW 9.0.4) date 2026-01-28 21:56:10*
%MOMM*%
%LPD*%
G01*
G04 APERTURE LIST*
%ADD10C,0.150000*%
G04 APERTURE END LIST*
D10*
X130785714Y-88631009D02*
X130642857Y-88678628D01*
X130642857Y-88678628D02*
X130595238Y-88726247D01*
X130595238Y-88726247D02*
X130547619Y-88821485D01*
X130547619Y-88821485D02*
X130547619Y-88964342D01*
X130547619Y-88964342D02*
X130595238Y-89059580D01*
X130595238Y-89059580D02*
X130642857Y-89107200D01*
X130642857Y-89107200D02*
X130738095Y-89154819D01*
X130738095Y-89154819D02*
X131119047Y-89154819D01*
X131119047Y-89154819D02*
X131119047Y-88154819D01*
X131119047Y-88154819D02*
X130785714Y-88154819D01*
X130785714Y-88154819D02*
X130690476Y-88202438D01*
X130690476Y-88202438D02*
X130642857Y-88250057D01*
X130642857Y-88250057D02*
X130595238Y-88345295D01*
X130595238Y-88345295D02*
X130595238Y-88440533D01*
X130595238Y-88440533D02*
X130642857Y-88535771D01*
X130642857Y-88535771D02*
X130690476Y-88583390D01*
X130690476Y-88583390D02*
X130785714Y-88631009D01*
X130785714Y-88631009D02*
X131119047Y-88631009D01*
X130261904Y-88154819D02*
X129690476Y-88154819D01*
X129976190Y-89154819D02*
X129976190Y-88154819D01*
X128833333Y-89154819D02*
X129404761Y-89154819D01*
X129119047Y-89154819D02*
X129119047Y-88154819D01*
X129119047Y-88154819D02*
X129214285Y-88297676D01*
X129214285Y-88297676D02*
X129309523Y-88392914D01*
X129309523Y-88392914D02*
X129404761Y-88440533D01*
M02*
