%TF.GenerationSoftware,KiCad,Pcbnew,9.0.4*%
%TF.CreationDate,2026-01-28T21:56:10-05:00*%
%TF.ProjectId,learn_to_solder,6c656172-6e5f-4746-9f5f-736f6c646572,rev?*%
%TF.SameCoordinates,Original*%
%TF.FileFunction,Copper,L2,Bot*%
%TF.FilePolarity,Positive*%
%FSLAX46Y46*%
G04 Gerber Fmt 4.6, Leading zero omitted, Abs format (unit mm)*
G04 Created by KiCad (PCBNEW 9.0.4) date 2026-01-28 21:56:10*
%MOMM*%
%LPD*%
G01*
G04 APERTURE LIST*
G04 Aperture macros list*
%AMRoundRect*
0 Rectangle with rounded corners*
0 $1 Rounding radius*
0 $2 $3 $4 $5 $6 $7 $8 $9 X,Y pos of 4 corners*
0 Add a 4 corners polygon primitive as box body*
4,1,4,$2,$3,$4,$5,$6,$7,$8,$9,$2,$3,0*
0 Add four circle primitives for the rounded corners*
1,1,$1+$1,$2,$3*
1,1,$1+$1,$4,$5*
1,1,$1+$1,$6,$7*
1,1,$1+$1,$8,$9*
0 Add four rect primitives between the rounded corners*
20,1,$1+$1,$2,$3,$4,$5,0*
20,1,$1+$1,$4,$5,$6,$7,0*
20,1,$1+$1,$6,$7,$8,$9,0*
20,1,$1+$1,$8,$9,$2,$3,0*%
%AMOutline5P*
0 Free polygon, 5 corners , with rotation*
0 The origin of the aperture is its center*
0 number of corners: always 5*
0 $1 to $10 corner X, Y*
0 $11 Rotation angle, in degrees counterclockwise*
0 create outline with 5 corners*
4,1,5,$1,$2,$3,$4,$5,$6,$7,$8,$9,$10,$1,$2,$11*%
%AMOutline6P*
0 Free polygon, 6 corners , with rotation*
0 The origin of the aperture is its center*
0 number of corners: always 6*
0 $1 to $12 corner X, Y*
0 $13 Rotation angle, in degrees counterclockwise*
0 create outline with 6 corners*
4,1,6,$1,$2,$3,$4,$5,$6,$7,$8,$9,$10,$11,$12,$1,$2,$13*%
%AMOutline7P*
0 Free polygon, 7 corners , with rotation*
0 The origin of the aperture is its center*
0 number of corners: always 7*
0 $1 to $14 corner X, Y*
0 $15 Rotation angle, in degrees counterclockwise*
0 create outline with 7 corners*
4,1,7,$1,$2,$3,$4,$5,$6,$7,$8,$9,$10,$11,$12,$13,$14,$1,$2,$15*%
%AMOutline8P*
0 Free polygon, 8 corners , with rotation*
0 The origin of the aperture is its center*
0 number of corners: always 8*
0 $1 to $16 corner X, Y*
0 $17 Rotation angle, in degrees counterclockwise*
0 create outline with 8 corners*
4,1,8,$1,$2,$3,$4,$5,$6,$7,$8,$9,$10,$11,$12,$13,$14,$15,$16,$1,$2,$17*%
G04 Aperture macros list end*
%TA.AperFunction,ComponentPad*%
%ADD10Outline8P,-7.350000X1.035000X-5.797500X2.587500X5.797500X2.587500X7.350000X1.035000X7.350000X-1.035000X5.797500X-2.587500X-5.797500X-2.587500X-7.350000X-1.035000X0.000000*%
%TD*%
%TA.AperFunction,ComponentPad*%
%ADD11R,1.800000X1.800000*%
%TD*%
%TA.AperFunction,ComponentPad*%
%ADD12C,1.800000*%
%TD*%
%TA.AperFunction,ComponentPad*%
%ADD13O,3.500000X2.200000*%
%TD*%
%TA.AperFunction,ComponentPad*%
%ADD14R,2.500000X1.500000*%
%TD*%
%TA.AperFunction,ComponentPad*%
%ADD15O,2.500000X1.500000*%
%TD*%
%TA.AperFunction,ComponentPad*%
%ADD16R,1.600000X1.600000*%
%TD*%
%TA.AperFunction,ComponentPad*%
%ADD17C,1.600000*%
%TD*%
%TA.AperFunction,ComponentPad*%
%ADD18O,1.600000X1.600000*%
%TD*%
%TA.AperFunction,ComponentPad*%
%ADD19R,1.500000X1.500000*%
%TD*%
%TA.AperFunction,ComponentPad*%
%ADD20C,1.500000*%
%TD*%
%TA.AperFunction,SMDPad,CuDef*%
%ADD21RoundRect,0.687500X0.687500X2.062500X-0.687500X2.062500X-0.687500X-2.062500X0.687500X-2.062500X0*%
%TD*%
%TA.AperFunction,SMDPad,CuDef*%
%ADD22C,17.500000*%
%TD*%
%TA.AperFunction,Conductor*%
%ADD23C,0.250000*%
%TD*%
G04 APERTURE END LIST*
D10*
%TO.P,REF\u002A\u002A,1*%
%TO.N,N/C*%
X130250000Y-59250000D03*
%TD*%
D11*
%TO.P,D1,1,K*%
%TO.N,Net-(D1-Pad1)*%
X153000000Y-80000000D03*
D12*
%TO.P,D1,2,A*%
%TO.N,Net-(BT1-Pad1)*%
X155540000Y-80000000D03*
%TD*%
D13*
%TO.P,SW1,*%
%TO.N,*%
X94297500Y-79600000D03*
X94297500Y-71400000D03*
D14*
%TO.P,SW1,1,A*%
%TO.N,GND*%
X94297500Y-77500000D03*
D15*
%TO.P,SW1,2,B*%
%TO.N,Net-(BT1-Pad2)*%
X94297500Y-75500000D03*
%TO.P,SW1,3,C*%
%TO.N,unconnected-(SW1-Pad3)*%
X94297500Y-73500000D03*
%TD*%
D16*
%TO.P,R2,1*%
%TO.N,Net-(Q1-Pad2)*%
X113500000Y-89000000D03*
D17*
%TO.P,R2,2*%
%TO.N,GND*%
X118500000Y-89000000D03*
%TD*%
%TO.P,R1,1*%
%TO.N,Net-(BT1-Pad1)*%
X87000000Y-70420000D03*
D18*
%TO.P,R1,2*%
%TO.N,Net-(Q1-Pad2)*%
X87000000Y-80580000D03*
%TD*%
D17*
%TO.P,R4,1*%
%TO.N,Net-(D2-Pad1)*%
X138080000Y-89000000D03*
D18*
%TO.P,R4,2*%
%TO.N,Net-(Q1-Pad3)*%
X127920000Y-89000000D03*
%TD*%
D17*
%TO.P,R3,1*%
%TO.N,Net-(D1-Pad1)*%
X138080000Y-95000000D03*
D18*
%TO.P,R3,2*%
%TO.N,Net-(Q1-Pad3)*%
X127920000Y-95000000D03*
%TD*%
D11*
%TO.P,D2,1,K*%
%TO.N,Net-(D2-Pad1)*%
X153000000Y-69000000D03*
D12*
%TO.P,D2,2,A*%
%TO.N,Net-(BT1-Pad1)*%
X155540000Y-69000000D03*
%TD*%
D19*
%TO.P,Q1,1,E*%
%TO.N,GND*%
X108000000Y-76000000D03*
D20*
%TO.P,Q1,2,B*%
%TO.N,Net-(Q1-Pad2)*%
X105460000Y-76000000D03*
%TO.P,Q1,3,C*%
%TO.N,Net-(Q1-Pad3)*%
X102920000Y-76000000D03*
%TD*%
D21*
%TO.P,BT1,1,+*%
%TO.N,Net-(BT1-Pad1)*%
X142065000Y-76000000D03*
X117935000Y-76000000D03*
D22*
%TO.P,BT1,2,-*%
%TO.N,Net-(BT1-Pad2)*%
X130000000Y-76000000D03*
%TD*%
D23*
%TO.N,Net-(BT1-Pad1)*%
X100000000Y-68000000D02*
X102000000Y-70000000D01*
X154000000Y-72000000D02*
X155540000Y-70460000D01*
X155540000Y-70460000D02*
X155540000Y-69000000D01*
X142065000Y-76000000D02*
X146065000Y-72000000D01*
X155540000Y-86460000D02*
X155540000Y-80000000D01*
X118000000Y-70000000D02*
X102000000Y-70000000D01*
X89000000Y-70000000D02*
X91000000Y-68000000D01*
X117935000Y-70065000D02*
X118000000Y-70000000D01*
X122500000Y-65500000D02*
X118000000Y-70000000D01*
X91000000Y-68000000D02*
X100000000Y-68000000D01*
X146065000Y-72000000D02*
X154000000Y-72000000D01*
X150000000Y-92000000D02*
X155540000Y-86460000D01*
X140080000Y-82920000D02*
X140080000Y-89080000D01*
X152040000Y-65500000D02*
X122500000Y-65500000D01*
X88580000Y-70420000D02*
X89000000Y-70000000D01*
X140080000Y-89080000D02*
X143000000Y-92000000D01*
X117935000Y-76000000D02*
X117935000Y-70065000D01*
X142065000Y-80935000D02*
X140080000Y-82920000D01*
X142065000Y-76000000D02*
X142065000Y-80935000D01*
X87000000Y-70420000D02*
X88580000Y-70420000D01*
X155540000Y-69000000D02*
X152040000Y-65500000D01*
X143000000Y-92000000D02*
X150000000Y-92000000D01*
%TO.N,GND*%
X98500000Y-77500000D02*
X99500000Y-76500000D01*
X109250000Y-79750000D02*
X118500000Y-89000000D01*
X99500000Y-74000000D02*
X100000000Y-73500000D01*
X108000000Y-76000000D02*
X108000000Y-78500000D01*
X108000000Y-78500000D02*
X109250000Y-79750000D01*
X94297500Y-77500000D02*
X98500000Y-77500000D01*
X100000000Y-73500000D02*
X105500000Y-73500000D01*
X99500000Y-76500000D02*
X99500000Y-74000000D01*
X105500000Y-73500000D02*
X108000000Y-76000000D01*
%TO.N,Net-(D1-Pad1)*%
X149000000Y-95000000D02*
X158000000Y-86000000D01*
X158000000Y-77000000D02*
X155000000Y-77000000D01*
X153000000Y-79000000D02*
X153000000Y-80000000D01*
X138080000Y-95000000D02*
X149000000Y-95000000D01*
X155000000Y-77000000D02*
X153000000Y-79000000D01*
X158000000Y-86000000D02*
X158000000Y-77000000D01*
%TO.N,Net-(D2-Pad1)*%
X139500000Y-72000000D02*
X139500000Y-81500000D01*
X139500000Y-81500000D02*
X138080000Y-82920000D01*
X138080000Y-82920000D02*
X138080000Y-89000000D01*
X153000000Y-69000000D02*
X142500000Y-69000000D01*
X142500000Y-69000000D02*
X139500000Y-72000000D01*
%TO.N,Net-(Q1-Pad2)*%
X105000000Y-74500000D02*
X105500000Y-75000000D01*
X89920000Y-83500000D02*
X95500000Y-83500000D01*
X87000000Y-80580000D02*
X89920000Y-83500000D01*
X95500000Y-83500000D02*
X101000000Y-78000000D01*
X105500000Y-75000000D02*
X105500000Y-76000000D01*
X101000000Y-75500000D02*
X102000000Y-74500000D01*
X105460000Y-80960000D02*
X113500000Y-89000000D01*
X105460000Y-76000000D02*
X105460000Y-80960000D01*
X101000000Y-78000000D02*
X101000000Y-75500000D01*
X102000000Y-74500000D02*
X105000000Y-74500000D01*
%TO.N,Net-(Q1-Pad3)*%
X127920000Y-89000000D02*
X127920000Y-94920000D01*
X102920000Y-82620000D02*
X104650000Y-84350000D01*
X104650000Y-84350000D02*
X115300000Y-95000000D01*
X102920000Y-76000000D02*
X102920000Y-82620000D01*
X115300000Y-95000000D02*
X127920000Y-95000000D01*
X104460000Y-84160000D02*
X104650000Y-84350000D01*
%TO.N,Net-(BT1-Pad2)*%
X99000000Y-72000000D02*
X97500000Y-73500000D01*
X97500000Y-74500000D02*
X96500000Y-75500000D01*
X107500000Y-72000000D02*
X99000000Y-72000000D01*
X125000000Y-81000000D02*
X116500000Y-81000000D01*
X96500000Y-75500000D02*
X94297500Y-75500000D01*
X116500000Y-81000000D02*
X107500000Y-72000000D01*
X130000000Y-76000000D02*
X125000000Y-81000000D01*
X97500000Y-73500000D02*
X97500000Y-74500000D01*
%TD*%
M02*
