M48
; DRILL file {KiCad 9.0.4} date 2026-01-28T21:56:14-0500
; FORMAT={-:-/ absolute / inch / decimal}
; #@! TF.CreationDate,2026-01-28T21:56:14-05:00
; #@! TF.GenerationSoftware,Kicad,Pcbnew,9.0.4
; #@! TF.FileFunction,Plated,1,2,PTH
FMAT,2
INCH
; #@! TA.AperFunction,Plated,PTH,ComponentDrill
T1C0.0315
; #@! TA.AperFunction,Plated,PTH,ComponentDrill
T2C0.0354
; #@! TA.AperFunction,Plated,PTH,ComponentDrill
T3C0.0591
; #@! TA.AperFunction,Plated,PTH,ComponentDrill
T4C0.1250
%
G90
G05
T1
X3.4252Y-2.7724
X3.4252Y-3.1724
X3.7125Y-2.8937
X3.7125Y-2.9724
X3.7125Y-3.0512
X4.052Y-2.9921
X4.152Y-2.9921
X4.252Y-2.9921
X4.4685Y-3.5039
X4.6654Y-3.5039
X5.0362Y-3.5039
X5.0362Y-3.7402
X5.4362Y-3.5039
X5.4362Y-3.7402
T2
X6.0236Y-2.7165
X6.0236Y-3.1496
X6.1236Y-2.7165
X6.1236Y-3.1496
T3
X3.7125Y-2.811
X3.7125Y-3.1339
T4
G00X4.9405Y-2.3327
M15
G01X5.3155Y-2.3327
M16
G05
M30
